<svg width="25" height="25" viewBox="0 0 25 25" fill="none" xmlns="http://www.w3.org/2000/svg">
<g clip-path="url(#clip0_9_258)">
<path d="M6.12543 0.0258037C5.96564 0.0378395 5.79897 0.0515946 5.75601 0.0584722C5.42268 0.106615 5.17526 0.154758 4.93127 0.218376C4.84193 0.240728 4.75601 0.26308 4.74227 0.266519C4.72852 0.269958 4.63574 0.299187 4.53608 0.331856C3.97423 0.51927 3.43986 0.778899 2.95533 1.10043C2.67182 1.28784 2.41065 1.49073 2.23368 1.65923C2.17182 1.71769 2.07904 1.80366 2.02577 1.85008C1.79381 2.05125 1.29725 2.64272 1.12543 2.92126C1.11512 2.93674 1.07217 3.00552 1.02577 3.07429C0.9811 3.14307 0.945018 3.20153 0.945018 3.20496C0.945018 3.2084 0.91409 3.2617 0.878007 3.32188C0.635739 3.7225 0.359107 4.40166 0.231959 4.91748C0.207904 5.01721 0.178694 5.12897 0.168385 5.16679C0.158076 5.20462 0.149485 5.25104 0.146048 5.26996C0.14433 5.28887 0.137457 5.3267 0.132303 5.35593C0.12543 5.38344 0.116839 5.43502 0.111684 5.46769C0.10653 5.50036 0.0979384 5.5399 0.094502 5.55366C0.0910656 5.56741 0.0824745 5.62931 0.0773199 5.68949C0.0721652 5.74967 0.0635742 5.81501 0.0601377 5.83564C0.0326463 5.94912 0.0274917 6.6214 0.0223371 12.414C0.0154642 18.9839 0.013746 18.9185 0.0841927 19.3862C0.158076 19.8814 0.293815 20.3869 0.4811 20.8563C0.57732 21.097 0.730241 21.422 0.816152 21.5698C0.85567 21.6352 0.908935 21.728 0.936427 21.7761C0.9622 21.8226 1.02062 21.9154 1.06357 21.9825C1.10653 22.0478 1.14948 22.1149 1.15979 22.1303C1.25086 22.2782 1.52749 22.6204 1.74742 22.8594C2.43643 23.609 3.25945 24.1713 4.20962 24.5409C4.60481 24.6957 5.13918 24.8418 5.51546 24.8986C6.0189 24.9742 5.68385 24.9708 12.4914 24.9673C16.3454 24.9656 18.9536 24.957 19.0464 24.9467C19.2371 24.9278 19.4313 24.9003 19.5447 24.8797C19.8196 24.8264 19.9072 24.8074 20.0859 24.761C20.6667 24.6114 21.2955 24.3466 21.7784 24.0509C22.0739 23.8704 22.1409 23.8257 22.3436 23.6726C23.165 23.0519 23.8677 22.2112 24.2921 21.3411C24.5309 20.8528 24.7199 20.3301 24.8093 19.9106C24.8213 19.859 24.8368 19.7851 24.8454 19.7473C24.8814 19.5753 24.9055 19.424 24.9519 19.0767C24.9691 18.9374 24.9742 17.6737 24.9742 12.4914C24.9742 7.30916 24.9691 6.04541 24.9519 5.90613C24.8866 5.41267 24.8316 5.12381 24.7388 4.79712C24.6804 4.5908 24.555 4.21253 24.5361 4.18674C24.5292 4.17642 24.5172 4.15063 24.5103 4.12656C24.4845 4.03715 24.3196 3.67952 24.2131 3.48179C24.0292 3.13791 23.799 2.78199 23.5997 2.53612C23.2646 2.12003 22.8832 1.73832 22.4485 1.38241C22.1323 1.1245 21.421 0.701526 21.0773 0.565694C21.0275 0.54678 20.9656 0.51927 20.9364 0.507234C20.89 0.484882 20.8247 0.460811 20.5069 0.343892C20.4502 0.323259 20.3505 0.290591 20.2835 0.273397C20.2182 0.254483 20.1478 0.23557 20.1289 0.230412C20.11 0.225254 20.0636 0.214937 20.0258 0.20634C19.988 0.197743 19.9364 0.183988 19.9124 0.173672C19.8866 0.165075 19.8625 0.159916 19.8574 0.165075C19.854 0.168513 19.8299 0.165075 19.8058 0.156478C19.7818 0.147881 19.7302 0.134126 19.689 0.128967C19.6478 0.12209 19.61 0.115212 19.6048 0.111773C19.5979 0.108335 19.5567 0.101457 19.5103 0.0945795C19.4639 0.0894213 19.4107 0.0808243 19.3918 0.0773855C19.3711 0.0722274 19.3213 0.0653498 19.2801 0.0601916C19.2371 0.0567528 19.1718 0.0481558 19.134 0.0429976C19.0945 0.0361201 19.0137 0.0275231 18.9519 0.0223649C18.89 0.0172067 16.0447 0.0120485 12.6289 0.00860974C7.78179 0.00517095 6.35395 0.00860974 6.12543 0.0258037ZM17.7234 2.56191C18.2251 2.61177 18.7199 2.73213 19.2268 2.93158C19.6598 3.10008 20.3093 3.47835 20.6512 3.75689C21.5808 4.51686 22.2234 5.45565 22.5498 6.53543C22.6735 6.94809 22.7337 7.2593 22.7835 7.76824C22.8076 8.01067 22.8076 17.316 22.7835 17.5585C22.7509 17.8834 22.7337 18.009 22.677 18.2944C22.6564 18.3993 22.6014 18.6193 22.5756 18.6984C22.4622 19.0578 22.421 19.1713 22.3522 19.3209C22.3351 19.3621 22.3196 19.3982 22.3196 19.4034C22.3196 19.4257 22.1426 19.7817 22.0808 19.8831C22.0412 19.945 22.0103 20 22.0103 20.0052C22.0103 20.0241 21.7749 20.3714 21.646 20.5416C21.3986 20.87 21.0292 21.2517 20.6959 21.5251C20.5773 21.6214 20.3677 21.7779 20.3127 21.8105C20.2973 21.8191 20.2474 21.8535 20.2028 21.8845C20.0086 22.0186 19.6031 22.2335 19.3351 22.3418C19.1375 22.4226 18.8144 22.5396 18.756 22.5499C18.7388 22.555 18.6804 22.5705 18.6271 22.586C18.5739 22.6015 18.512 22.6169 18.4897 22.6221C18.4656 22.6255 18.4416 22.6324 18.4364 22.6358C18.4296 22.6393 18.3643 22.6548 18.2887 22.6702C17.5842 22.8078 17.7337 22.8043 12.5979 22.7923C10.1065 22.7872 7.98797 22.7803 7.89347 22.7751C7.55327 22.7579 7.10825 22.6857 6.76804 22.5946C6.59966 22.5499 6.32131 22.4587 6.28522 22.4381C6.26804 22.4278 6.24742 22.4209 6.23711 22.4209C6.2268 22.4209 6.18729 22.4072 6.14605 22.3883C6.10653 22.3711 6.02062 22.335 5.95361 22.3074C5.83505 22.261 5.56529 22.1269 5.4811 22.0753C5.45705 22.0598 5.36254 22.0031 5.26976 21.9481C5.17698 21.8948 5.06529 21.8226 5.02406 21.7916C4.98282 21.759 4.9433 21.7332 4.93643 21.7332C4.93127 21.7332 4.89347 21.7074 4.85395 21.6747C4.81443 21.642 4.74399 21.5853 4.6976 21.5509C4.55155 21.4409 4.19931 21.1125 4.02062 20.9182C3.90034 20.7875 3.61856 20.4247 3.49141 20.2373C3.24055 19.8659 2.9622 19.2847 2.8299 18.8618C2.73883 18.5695 2.71478 18.4784 2.6701 18.26C2.56357 17.7356 2.57045 18.1224 2.56357 12.7321C2.5567 7.84733 2.56014 7.64788 2.61168 7.34183C2.689 6.89651 2.75258 6.64719 2.87801 6.3016C3.16839 5.49348 3.57217 4.85215 4.16495 4.25036C4.63918 3.76893 5.03265 3.47319 5.62371 3.15854C5.85395 3.03474 6.39691 2.81466 6.55498 2.77855C6.56529 2.77512 6.62715 2.75792 6.69244 2.73901C6.96564 2.65648 7.27148 2.60146 7.689 2.55503C7.82646 2.54128 17.5687 2.54644 17.7234 2.56191Z" fill="white"/>
<path d="M7.85223 4.00104C7.20275 4.04058 6.41065 4.32428 5.82474 4.72662C5.55842 4.90888 5.27319 5.15991 5.08419 5.37827C4.89003 5.60179 4.83505 5.67229 4.69587 5.88033C4.63574 5.97146 4.41581 6.35489 4.41581 6.36864C4.41581 6.37208 4.39003 6.43226 4.35739 6.50276C4.32646 6.57153 4.28694 6.6661 4.27148 6.71424C4.25429 6.76066 4.23539 6.81569 4.2268 6.8346C4.19587 6.90509 4.10653 7.24897 4.07388 7.42263C4.00343 7.7923 4.00343 7.71665 4.00343 12.6547C4.00172 17.6616 4.00172 17.6341 4.08075 17.9625C4.0945 18.021 4.10996 18.0949 4.11512 18.1241C4.13746 18.2514 4.29209 18.6915 4.38144 18.8876C4.41237 18.9529 4.4433 19.0234 4.45189 19.0423C4.46048 19.0612 4.4811 19.099 4.49828 19.1283C4.51546 19.1558 4.55154 19.2177 4.57732 19.2641C4.76804 19.6063 5.0945 20 5.43814 20.3009C6.04983 20.8356 6.73196 21.1486 7.61168 21.2981C7.78179 21.3274 8.06357 21.3291 12.6632 21.3291C17.8986 21.3291 17.5189 21.3343 17.9725 21.2534C18.1375 21.2242 18.5086 21.1159 18.634 21.0626C18.6529 21.054 18.7113 21.0299 18.7629 21.0093C18.9038 20.9525 19.2526 20.7703 19.3986 20.6757C19.8883 20.3628 20.3539 19.8986 20.6873 19.3862C20.8007 19.2108 21.0086 18.7913 21.0704 18.6125C21.0979 18.5368 21.1254 18.4594 21.1323 18.4405C21.1804 18.3305 21.2474 18.0433 21.3093 17.6926C21.3419 17.5052 21.3419 7.85248 21.3093 7.63412C21.1924 6.85351 20.9278 6.23625 20.4313 5.576C20.3093 5.41438 19.8677 4.98625 19.6821 4.84698C19.2766 4.54436 18.7663 4.2813 18.3849 4.17641C18.3522 4.16782 18.3127 4.1575 18.299 4.15234C18.1306 4.10592 18.0464 4.08701 17.8746 4.05606C17.7629 4.03714 17.6495 4.01651 17.6203 4.00963C17.5687 3.99932 8.02921 3.99072 7.85223 4.00104ZM18.4897 6.1967C18.744 6.27408 18.9674 6.45461 19.079 6.67126C19.1598 6.82772 19.1821 6.92745 19.1821 7.1183C19.1821 7.40544 19.1031 7.59113 18.8935 7.79402C18.7405 7.94533 18.6289 8.00551 18.4261 8.04677C17.9519 8.1465 17.4639 7.8542 17.3299 7.38996C17.2972 7.27648 17.2921 6.95668 17.3213 6.86211C17.366 6.71768 17.4467 6.57497 17.5395 6.47868C17.6684 6.34285 17.7646 6.27751 17.921 6.22077C18.0292 6.18123 18.079 6.17435 18.2302 6.17435C18.3385 6.17263 18.4433 6.18295 18.4897 6.1967ZM13.3385 7.99519C13.799 8.06225 14.0395 8.11555 14.4244 8.2445C15.1753 8.49381 15.9038 8.94601 16.4519 9.49966C16.5962 9.64581 16.768 9.83322 16.8127 9.89512C16.8419 9.93295 16.8694 9.96734 16.8746 9.97249C16.9192 10.0069 17.1907 10.4075 17.3247 10.6345C17.6306 11.1572 17.866 11.8294 17.957 12.4484C17.988 12.6616 18.0241 13.0932 18.0241 13.2703C18.0241 13.523 17.9742 14.0045 17.9192 14.271C17.9003 14.3604 17.8814 14.4532 17.8763 14.4773C17.8643 14.5375 17.7852 14.816 17.7577 14.8986C17.1942 16.5818 15.8436 17.8714 14.1443 18.3511C13.878 18.4268 13.6564 18.4697 13.2835 18.5196C13.134 18.5385 12.3076 18.5454 12.232 18.5282C12.2096 18.5213 12.1289 18.511 12.0533 18.5007C11.9777 18.4921 11.854 18.4732 11.7783 18.4594C11.7027 18.444 11.6186 18.4285 11.5893 18.4233C11.5619 18.4182 11.5241 18.4096 11.5086 18.4044C11.4931 18.3992 11.4639 18.3924 11.4433 18.3889C11.3419 18.37 10.9416 18.2376 10.7474 18.1603C10.4278 18.033 9.89347 17.7407 9.68728 17.5825C9.66151 17.5619 9.60481 17.5189 9.55842 17.4862C9.28866 17.292 8.90378 16.924 8.64948 16.6197C8.27835 16.1778 7.9055 15.5227 7.74742 15.0361C7.73539 14.9983 7.71993 14.9587 7.71477 14.9501C7.7079 14.9398 7.69416 14.902 7.68385 14.8642C7.67354 14.8263 7.64948 14.7404 7.63058 14.675C7.58419 14.5151 7.53436 14.2899 7.51203 14.142C7.50172 14.075 7.48282 13.9598 7.47079 13.8841C7.43986 13.6984 7.44158 12.8181 7.47079 12.6204C7.52233 12.2782 7.56701 12.0633 7.63746 11.8036C7.7835 11.2706 8.07904 10.6568 8.42268 10.1788C8.98797 9.3879 9.8024 8.73625 10.6787 8.37346C10.7543 8.34251 10.8316 8.30984 10.8505 8.30296C10.9192 8.27373 11.2491 8.16885 11.3832 8.13274C11.5808 8.08116 11.7698 8.04505 12.0876 7.99863C12.2337 7.97628 13.1907 7.97456 13.3385 7.99519Z" fill="white"/>
<path d="M12.2405 9.44808C11.3677 9.56672 10.6271 9.92951 10.024 10.5313C9.69415 10.8614 9.49484 11.1365 9.29896 11.532C9.19931 11.7349 9.07731 12.0255 9.06529 12.0925C9.06357 12.1045 9.04467 12.1664 9.02577 12.2335C8.99484 12.3384 8.97766 12.4158 8.93986 12.6032C8.93642 12.6255 8.92096 12.7373 8.90721 12.8525C8.82474 13.554 8.96735 14.3277 9.29724 14.9777C9.49828 15.3748 9.70102 15.6551 10.0086 15.9646C10.3127 16.2689 10.6117 16.4856 10.988 16.6747C11.3127 16.838 11.6031 16.9412 11.9158 17.0048C11.9725 17.0151 12.0344 17.0289 12.0533 17.0323C12.1718 17.0598 12.5189 17.0908 12.7234 17.0908C12.9313 17.0908 13.2131 17.0667 13.4192 17.0306C13.5979 16.9997 13.9948 16.8862 14.1151 16.8329C14.134 16.8243 14.2182 16.7882 14.3007 16.7538C14.4983 16.6713 14.8333 16.4718 15.0515 16.3067C15.232 16.1709 15.5464 15.87 15.6632 15.7239C15.6993 15.6757 15.7388 15.6293 15.7491 15.6207C15.7852 15.5898 15.9897 15.2803 16.0773 15.1221C16.2148 14.8796 16.4038 14.4085 16.4347 14.2383C16.4399 14.2108 16.4502 14.1678 16.4605 14.1437C16.4691 14.118 16.4742 14.099 16.4691 14.099C16.4656 14.099 16.4708 14.0733 16.4794 14.0423C16.488 14.0131 16.5 13.9477 16.5051 13.9013C16.512 13.8532 16.5189 13.8102 16.5223 13.805C16.5636 13.7345 16.5618 12.7562 16.5206 12.6891C16.5172 12.684 16.5103 12.6427 16.5051 12.5963C16.5 12.5516 16.4914 12.5086 16.488 12.5034C16.4845 12.4966 16.4759 12.4605 16.4708 12.4226C16.4399 12.2335 16.2783 11.7744 16.1564 11.5285C16.0704 11.36 15.8144 10.9577 15.7474 10.8907C15.7371 10.8803 15.701 10.8339 15.6649 10.7875C15.5876 10.686 15.2869 10.3869 15.1632 10.2906C15.1168 10.2528 15.0739 10.2166 15.0687 10.2098C15.0361 10.1668 14.6254 9.91576 14.4244 9.81603C14.1856 9.69911 13.7646 9.55124 13.5481 9.50826C13.4914 9.49622 13.4106 9.48075 13.3677 9.47215C13.0893 9.41885 12.5429 9.40681 12.2405 9.44808Z" fill="white"/>
</g>
<defs>
<clipPath id="clip0_9_258">
<rect width="25" height="25" fill="white"/>
</clipPath>
</defs>
</svg>
