<svg width="25" height="26" viewBox="0 0 25 26" fill="none" xmlns="http://www.w3.org/2000/svg">
<g clip-path="url(#clip0_9_256)">
<path d="M22.0238 0.577789H2.97619C1.33333 0.577789 0 1.93364 0 3.60424V22.9736C0 24.6442 1.33333 26 2.97619 26H22.0238C23.6667 26 25 24.6442 25 22.9736V3.60424C25 1.93364 23.6667 0.577789 22.0238 0.577789ZM7.7381 10.2624V21.763H4.16667V10.2624H7.7381ZM4.16667 6.91519C4.16667 6.06778 4.88095 5.42012 5.95238 5.42012C7.02381 5.42012 7.69643 6.06778 7.7381 6.91519C7.7381 7.76259 7.07143 8.44657 5.95238 8.44657C4.88095 8.44657 4.16667 7.76259 4.16667 6.91519ZM20.8333 21.763H17.2619C17.2619 21.763 17.2619 16.158 17.2619 15.7101C17.2619 14.4995 16.6667 13.2889 15.1786 13.2647H15.131C13.6905 13.2647 13.0952 14.5116 13.0952 15.7101C13.0952 16.2609 13.0952 21.763 13.0952 21.763H9.52381V10.2624H13.0952V11.812C13.0952 11.812 14.244 10.2624 16.5536 10.2624C18.9167 10.2624 20.8333 11.9149 20.8333 15.2621V21.763Z" fill="white"/>
</g>
<defs>
<clipPath id="clip0_9_256">
<rect width="25" height="26" fill="white"/>
</clipPath>
</defs>
</svg>
