<svg width="1178" height="393" viewBox="0 0 1178 393" fill="none" xmlns="http://www.w3.org/2000/svg">
<path d="M983.926 335.005C983.908 335.005 980.284 338.296 980.284 338.296C975.107 343.01 969.779 348.056 963.347 345.532C961.57 344.874 960.321 342.464 960.021 340.594C959.728 327.101 965.694 314.599 971.48 302.426L972.964 299.242C989.607 270.943 1008.95 237.598 1037.36 214.455C1042.15 210.937 1047.35 207.982 1052.83 210.287C1054.09 211.491 1055.56 213.577 1055.56 215.659C1055.56 216.32 1054.98 218.074 1054.65 218.619C1046.72 231.678 1039.16 245.389 1031.81 258.55C1017.45 284.549 1002.55 311.416 983.926 335.005ZM829.983 268.313C828.896 269.085 809.702 262.501 805.993 244.402C802.847 228.82 813.383 216.645 823.577 210.507C827.952 206.995 834.543 205.792 839.378 207.54C843.865 210.615 845.081 216.104 845.081 222.019C845.081 225.646 844.609 229.372 844.192 232.771L844.099 233.542C840.902 245.714 836.008 257.671 829.983 268.313ZM756.665 341.918C754.708 338.956 754.058 335.718 753.994 332.217C753.618 310.708 776.341 272.191 792.38 251.207H792.416C799.138 266.196 814.358 275.83 823.547 279.89C812.135 305.78 772.991 361.223 756.665 341.918ZM1033.68 345.737C1029.88 348.369 1024.54 346.346 1026.54 340.315C1031.51 324.958 1051.27 293.662 1051.27 293.662L1106.31 194.246H1068.61C1066.81 197.244 1062.98 204.128 1062.98 204.128C1061.24 201.169 1056.02 194.589 1053.87 193.168C1044.66 187.24 1031.15 190.043 1021.83 195.416C981.296 219.553 951.724 267.241 928.4 304.425C928.4 304.425 903.849 345.763 890.22 348.837C879.581 349.716 880.678 335.12 881.139 331.719C885.253 307.144 894.806 283.781 904.432 262.61C924.008 248.79 946.349 230.691 966.653 210.837C1010.72 167.943 1047.86 119.347 1053.29 108.49C1053.29 108.49 1047.41 109.698 1040.47 109.915C1006.57 158.07 937.205 228.06 916.177 238.474C925.493 215.654 985.686 106.731 1036.91 54.6313L1044.97 46.7306C1057.43 34.3351 1070.35 21.6111 1080.41 19.5265C1081.48 19.4174 1082.84 19.5265 1084.03 22.0536C1084.47 31.705 1080.95 38.8359 1076.9 46.9524L1071.23 58.8011C1071.23 58.8011 1079.26 57.2651 1084.54 55.5055C1090.66 43.7737 1097.44 30.6066 1094.94 14.9239C1094.11 9.87694 1090.52 6.03869 1085.83 5.16036C1070.55 2.19864 1053.9 13.7128 1040.5 23.0398L1039.96 23.3666C971.08 78.3233 912.915 157.525 862.062 265.682C858.377 268.53 844.137 271.934 841.716 270.287C846.738 259.759 853.061 245.605 856.225 230.248C856.773 225.86 857.282 221.364 857.282 216.978C857.282 207.536 855.057 198.654 846.751 192.513C837.014 187.576 824.979 189.881 816.865 193.609C780.515 208.966 753.349 246.923 733.745 278.18C723.201 298.04 712.688 319.309 709.777 343.667C707.727 362.751 711.901 375.037 722.555 381.182C733.512 386.882 747.303 380.957 752.721 378.108C789.546 358.364 815.277 318.767 835.558 282.565C836.365 282.457 847.439 282.131 855.815 279.933C855.927 279.933 855.974 279.933 856.159 280.049C855.679 281.686 851.351 294.854 851.351 294.854C838.496 333.244 832.552 359.353 844.693 374.821C862.044 396.651 890.769 374.056 914.138 344.214C909.122 379.974 927.32 385.57 941.192 382.831C957.127 378.445 974.884 361.109 983.125 352.227C980.479 362.646 981.199 381.296 995.694 383.159C1005.63 385.029 1013.07 379.525 1021.67 374.807C1052.53 357.693 1089.48 300.668 1099.07 284.181H1086.49C1072.86 305.166 1055.5 332.676 1033.68 345.737ZM558.228 132.793H593.549L613.484 99.818H578.156L558.228 132.793ZM1122.46 45.194C1095.52 60.7736 1067.61 70.8627 1033.81 67.353C1024.44 78.1063 1015.32 89.184 1006.92 100.591C1054.35 112.877 1104.64 85.5634 1132.68 59.5692C1162.35 33.3513 1177.56 0.336469 1177.56 0.336469C1177.56 0.336469 1155.33 26.2204 1122.46 45.194ZM825.45 36.8604C819.834 102.456 769.765 140.964 757.377 144.028C749.87 145.562 737.06 142.163 748.495 114.634C765.337 77.5541 794.09 46.0771 824.939 29.9495C825.69 32.6924 825.671 34.4443 825.45 36.8604ZM727.889 202.165C724.302 194.269 715.786 189.223 706.712 189.771C677.242 192.515 648.417 217.195 633.282 252.626C625.34 270.837 621.006 285.863 618.164 309.775C627.327 299.029 646.018 281.369 667.23 271.716C667.23 271.716 670.116 248.79 684.833 228.387C690.403 219.938 701.548 206.337 714.063 209.956C724.997 213.688 721.154 244.512 706.622 274.34C695.869 296.282 679.414 318.227 662.766 333.36C648.047 346.085 626.268 361.441 607.215 349.596C595.214 342.359 589.093 327.218 590.386 307.693C596.12 252.3 620.88 205.129 656.31 151.381C692.846 101.47 733.12 50.2445 787.375 22.9235C798.442 17.2201 808.69 15.9041 817.548 19.4144C817.548 19.4144 766.618 47.9345 742.34 100.7C736.164 114.085 727.575 132.179 736.224 148.195C740.744 156.53 748.77 157.19 755.231 156.751C784.989 149.729 804.215 121.429 819.925 95.5439C829.032 75.909 837.127 56.3832 837.127 34.6607C837.127 32.0287 836.993 28.5202 836.774 25.8846C850.991 18.2093 880.144 31.8081 880.144 31.8081C902.926 39.4894 951.437 77.3359 967.797 84.5723C975.779 75.1404 988.896 60.8815 996.28 53.75L985.589 47.058C968.473 36.4173 950.38 26.3247 932.571 16.3436C892.128 -6.14035 859.206 1.75558 842.451 7.89906C835.866 10.311 829.848 12.3956 829.848 12.3956C817.414 -1.42498 797.022 -0.111986 781.997 3.62015C727.962 19.415 677.795 57.9156 624.011 124.721C584.467 177.046 559.935 222.242 546.866 266.884C536.788 296.938 533.726 341.143 558.322 367.361C579.234 389.622 606.964 384.8 626.548 376.794C668.975 355.514 707.107 309.658 726.111 256.899C730.696 241.215 735.783 219.06 727.889 202.165ZM257.596 151.272C257.526 151.491 250.39 168.163 250.39 168.163C249.359 169.039 247.728 168.602 245.859 168.163L242.656 167.611C232.6 164.432 225.014 157.63 222.676 149.514C219.449 133.717 232.7 121.322 238.538 116.827C244.14 112.874 252.849 110.791 257.906 114.851C261.024 118.582 262.206 123.407 262.206 128.676C262.208 135.804 260.046 143.811 257.596 151.272ZM242.269 182.97C242.269 182.97 241.945 183.96 241.785 184.284C241.744 184.284 225.566 211.155 225.566 211.155C215.802 224.43 203.612 241.108 188.372 249.112C183.856 250.649 177.612 251.638 174.431 247.582C167.685 239.354 171.162 227.946 173.986 218.732L174.986 215.441C183.083 193.066 195.932 173.317 208.438 154.995C208.594 154.888 208.944 154.778 209.07 154.778C209.1 154.888 209.15 154.888 209.172 155.108C217.019 170.462 231.734 177.59 242.739 180.885C242.805 180.885 242.876 180.994 242.876 181.215C242.877 181.542 242.697 181.987 242.269 182.97ZM444.645 165.31C451.881 155.111 472.944 127.796 478.079 123.19C495.349 107.717 502.251 114.525 502.849 119.348C486.731 148.745 467.709 182.42 449.824 212.696C449.859 212.588 444.227 221.361 444.227 221.361C436.327 233.644 428.374 244.175 415.4 251.524C413.55 252.075 410.501 252.296 408.471 250.755C406.028 249.109 405.064 246.366 405.339 243.513C406.116 234.082 415.546 205.24 444.645 165.31ZM265.294 98.6177C242.967 83.7 198.092 112.22 162.151 161.138C129.283 205.019 115.091 256.021 130.536 279.607C153.512 307.358 196.166 266.992 214.304 245.386L216.644 242.86C228.979 229.368 238.509 213.132 247.733 197.554C247.733 197.554 256.21 183.294 256.615 182.635C261.855 181.652 268.166 180.116 275.278 178.03C275.176 178.357 248.068 224.758 250.834 247.793C251.696 254.819 251.037 280.487 275.646 288.274C308.443 293.872 334.634 267.98 357.736 244.945C357.736 244.945 361.673 241.11 363.899 238.92C363.463 240.706 363.03 242.494 362.601 244.282C352.999 278.288 365.942 285.423 374.039 288.056C398.507 295.3 427.738 259.098 427.832 259.098C427.075 270.501 424.858 279.935 436.662 287.504C447.803 291.566 459.079 285.375 467.649 279.561C498.52 257.403 523.389 222.724 543.475 192.747H530.661C530.51 192.747 499.043 239.194 478.61 249.289C478.581 249.289 474.86 251.233 472.717 249.694C470.065 247.389 471.112 242.599 472.747 239.206C472.85 238.984 551.64 99.8186 551.64 99.8186H514.44C514.44 99.8186 510.376 106.514 510.045 106.953C509.795 106.734 509.199 105.583 508.785 105.032C485.737 72.5636 433.542 122.505 394.245 180.418C379.116 202.688 359.855 227.762 339.883 245.863C339.883 245.863 310.296 273.484 297.654 253.639C293.033 245.301 294.454 233.111 297.061 225.106C311.78 182.436 337.144 143.713 366.005 120.343C374.153 113.875 383.008 112.004 387.404 114.748C391.591 117.275 392.266 123.522 389.617 127.801C382.895 127.582 377.51 129.662 373.132 134.27C364.507 143.485 361.511 152.371 364.253 160.71C377.575 180.015 404.141 141.841 402.856 118.586C402.397 110.248 398.029 102.352 391.511 98.5086C381.796 92.5882 366.974 94.1212 357.383 98.8414C344.543 103.776 324.218 120.996 312.354 134.381C297.418 151.167 271.803 169.812 263.792 167.724C266.416 160.591 288.055 115.506 265.294 98.6177ZM452.28 342.684C408.468 313.942 349.008 308.899 253.119 335.992C150.895 360.456 116.809 376.138 72.0489 344.657C54.8526 329.192 48.687 304.291 53.2913 268.425C63.9694 209.955 92.8245 153.685 144.082 91.2734C172.693 58.8053 199.23 30.9418 234.273 19.7543C261.13 12.7349 258.619 34.2302 255.37 37.3041C251.94 37.3041 246.18 37.8544 241.728 40.8126C238.115 43.6664 228.197 52.8813 227.664 65.2768C226.895 84.2522 246.179 80.3024 254.496 69.8842C263.461 58.144 276.709 35.6607 266.288 14.7068C261.92 7.24856 254.372 2.09432 245.001 0.338867C212.914 -1.5287 183.028 14.0485 155.446 31.2703C95.1446 73.9395 46.8938 133.066 19.5952 197.786C3.8542 236.836 -10.3809 292.771 10.9576 338.3C27.4639 369.89 61.7328 386.67 102.62 383.161C131.295 380.093 165.966 370.654 189.29 364.956C212.61 359.248 331.982 317.459 371.208 390.19C371.208 390.19 384.251 364.406 416.846 363.856C443.645 361.338 482.305 371.756 510.457 392.813C501.078 378.448 474.486 357.278 452.302 342.686L452.28 342.684Z" fill="white"/>
</svg>
